<svg width="140" height="49" viewBox="0 0 140 49" fill="none" xmlns="http://www.w3.org/2000/svg">
<path d="M0 44C0 35.7157 6.71573 29 15 29H125C133.284 29 140 35.7157 140 44V49H0V44Z" fill="#B0D9B1"/>
<path d="M23 30C23 21.7157 29.7157 15 38 15H104C110.627 15 116 20.3726 116 27V31C116 35.4183 112.418 39 108 39H31C26.5817 39 23 35.4183 23 31V30Z" fill="#B0D9B1"/>
<path d="M43 20C43 8.95431 51.9543 0 63 0H69C80.0457 0 89 8.95431 89 20V29H43V20Z" fill="#B0D9B1"/>
<path d="M43.2979 34H41.6104L44.6829 25.2727H46.6346L49.7113 34H48.0238L45.6928 27.0625H45.6246L43.2979 34ZM43.3533 30.5781H47.9556V31.848H43.3533V30.5781ZM50.8608 34V25.2727H52.4034V28.5369H52.4673C52.5469 28.3778 52.6591 28.2088 52.804 28.0298C52.9489 27.848 53.1449 27.6932 53.392 27.5653C53.6392 27.4347 53.9545 27.3693 54.3381 27.3693C54.8438 27.3693 55.2997 27.4986 55.706 27.7571C56.1151 28.0128 56.4389 28.392 56.6776 28.8949C56.919 29.3949 57.0398 30.0085 57.0398 30.7358C57.0398 31.4545 56.9219 32.0653 56.6861 32.5682C56.4503 33.071 56.1293 33.4545 55.723 33.7188C55.3168 33.983 54.8565 34.1151 54.3423 34.1151C53.9673 34.1151 53.6563 34.0526 53.4091 33.9276C53.1619 33.8026 52.9631 33.652 52.8125 33.4759C52.6648 33.2969 52.5497 33.1278 52.4673 32.9688H52.3778V34H50.8608ZM52.3736 30.7273C52.3736 31.1506 52.4332 31.5213 52.5526 31.8395C52.6747 32.1577 52.8494 32.4062 53.0767 32.5852C53.3068 32.7614 53.5852 32.8494 53.9119 32.8494C54.2528 32.8494 54.5384 32.7585 54.7685 32.5767C54.9986 32.392 55.1719 32.1406 55.2884 31.8224C55.4077 31.5014 55.4673 31.1364 55.4673 30.7273C55.4673 30.321 55.4091 29.9602 55.2926 29.6449C55.1761 29.3295 55.0028 29.0824 54.7727 28.9034C54.5426 28.7244 54.2557 28.6349 53.9119 28.6349C53.5824 28.6349 53.3026 28.7216 53.0724 28.8949C52.8423 29.0682 52.6676 29.3111 52.5483 29.6236C52.4318 29.9361 52.3736 30.304 52.3736 30.7273ZM61.2063 34.1278C60.5671 34.1278 60.0131 33.9872 59.5444 33.706C59.0756 33.4247 58.712 33.0312 58.4535 32.5256C58.1978 32.0199 58.07 31.429 58.07 30.7528C58.07 30.0767 58.1978 29.4844 58.4535 28.9759C58.712 28.4673 59.0756 28.0724 59.5444 27.7912C60.0131 27.5099 60.5671 27.3693 61.2063 27.3693C61.8455 27.3693 62.3995 27.5099 62.8683 27.7912C63.337 28.0724 63.6992 28.4673 63.9549 28.9759C64.2134 29.4844 64.3427 30.0767 64.3427 30.7528C64.3427 31.429 64.2134 32.0199 63.9549 32.5256C63.6992 33.0312 63.337 33.4247 62.8683 33.706C62.3995 33.9872 61.8455 34.1278 61.2063 34.1278ZM61.2148 32.892C61.5614 32.892 61.8512 32.7969 62.0842 32.6065C62.3171 32.4134 62.4904 32.1548 62.604 31.831C62.7205 31.5071 62.7788 31.1463 62.7788 30.7486C62.7788 30.348 62.7205 29.9858 62.604 29.6619C62.4904 29.3352 62.3171 29.0753 62.0842 28.8821C61.8512 28.6889 61.5614 28.5923 61.2148 28.5923C60.8597 28.5923 60.5643 28.6889 60.3285 28.8821C60.0955 29.0753 59.9208 29.3352 59.8043 29.6619C59.6907 29.9858 59.6339 30.348 59.6339 30.7486C59.6339 31.1463 59.6907 31.5071 59.8043 31.831C59.9208 32.1548 60.0955 32.4134 60.3285 32.6065C60.5643 32.7969 60.8597 32.892 61.2148 32.892ZM69.8239 31.2472V27.4545H71.3665V34H69.8707V32.8366H69.8026C69.6548 33.2031 69.4119 33.5028 69.0739 33.7358C68.7386 33.9687 68.3253 34.0852 67.8338 34.0852C67.4048 34.0852 67.0256 33.9901 66.696 33.7997C66.3693 33.6065 66.1136 33.3267 65.929 32.9602C65.7443 32.5909 65.652 32.1449 65.652 31.6222V27.4545H67.1946V31.3835C67.1946 31.7983 67.3082 32.1278 67.5355 32.3722C67.7628 32.6165 68.0611 32.7386 68.4304 32.7386C68.6577 32.7386 68.8778 32.6832 69.0909 32.5724C69.304 32.4616 69.4787 32.2969 69.6151 32.0781C69.7543 31.8565 69.8239 31.5795 69.8239 31.2472ZM76.2212 27.4545V28.6477H72.4585V27.4545H76.2212ZM73.3874 25.8864H74.93V32.0312C74.93 32.2386 74.9613 32.3977 75.0238 32.5085C75.0891 32.6165 75.1744 32.6903 75.2795 32.7301C75.3846 32.7699 75.5011 32.7898 75.6289 32.7898C75.7255 32.7898 75.8136 32.7827 75.8931 32.7685C75.9755 32.7543 76.038 32.7415 76.0806 32.7301L76.3406 33.9361C76.2582 33.9645 76.1403 33.9957 75.9869 34.0298C75.8363 34.0639 75.6516 34.0838 75.4329 34.0895C75.0465 34.1009 74.6985 34.0426 74.3888 33.9148C74.0792 33.7841 73.8335 33.5824 73.6516 33.3097C73.4727 33.0369 73.3846 32.696 73.3874 32.2869V25.8864ZM80.5561 25.2727H82.4908L85.0817 31.5966H85.1839L87.7749 25.2727H89.7095V34H88.1925V28.0043H88.1115L85.6996 33.9744H84.5661L82.1541 27.9915H82.0732V34H80.5561V25.2727ZM94.2607 34.1278C93.6044 34.1278 93.0376 33.9915 92.5604 33.7188C92.0859 33.4432 91.7209 33.054 91.4652 32.5511C91.2095 32.0455 91.0817 31.4503 91.0817 30.7656C91.0817 30.0923 91.2095 29.5014 91.4652 28.9929C91.7237 28.4815 92.0845 28.0838 92.5476 27.7997C93.0107 27.5128 93.5547 27.3693 94.1797 27.3693C94.5831 27.3693 94.9638 27.4347 95.3217 27.5653C95.6825 27.6932 96.0007 27.892 96.2763 28.1619C96.5547 28.4318 96.7734 28.7756 96.9325 29.1932C97.0916 29.608 97.1712 30.1023 97.1712 30.6761V31.1491H91.8061V30.1094H95.6925C95.6896 29.8139 95.6257 29.5511 95.5007 29.321C95.3757 29.0881 95.201 28.9048 94.9766 28.7713C94.755 28.6378 94.4964 28.571 94.201 28.571C93.8857 28.571 93.6087 28.6477 93.37 28.8011C93.1314 28.9517 92.9453 29.1506 92.8118 29.3977C92.6811 29.642 92.6143 29.9105 92.6115 30.2031V31.1108C92.6115 31.4915 92.6811 31.8182 92.8203 32.0909C92.9595 32.3608 93.1541 32.5682 93.4041 32.7131C93.6541 32.8551 93.9467 32.9261 94.282 32.9261C94.5064 32.9261 94.7095 32.8949 94.8913 32.8324C95.0732 32.767 95.2308 32.6719 95.3643 32.5469C95.4979 32.4219 95.5987 32.267 95.6669 32.0824L97.1072 32.2443C97.0163 32.625 96.843 32.9574 96.5874 33.2415C96.3345 33.5227 96.0107 33.7415 95.6158 33.8977C95.2209 34.0511 94.7692 34.1278 94.2607 34.1278Z" fill="#638889"/>
</svg>
