<svg width="140" height="49" viewBox="0 0 140 49" fill="none" xmlns="http://www.w3.org/2000/svg">
<path d="M0 44C0 35.7157 6.71573 29 15 29H125C133.284 29 140 35.7157 140 44V49H0V44Z" fill="#EBD9B4"/>
<path d="M23 30C23 21.7157 29.7157 15 38 15H104C110.627 15 116 20.3726 116 27V31C116 35.4183 112.418 39 108 39H31C26.5817 39 23 35.4183 23 31V30Z" fill="#EBD9B4"/>
<path d="M43 20C43 8.95431 51.9543 0 63 0H69C80.0457 0 89 8.95431 89 20V29H43V20Z" fill="#EBD9B4"/>
<path d="M54.5985 28.2173H53.0048C52.9593 27.956 52.8755 27.7244 52.7534 27.5227C52.6312 27.3182 52.4792 27.1449 52.2974 27.0028C52.1156 26.8608 51.9082 26.7543 51.6752 26.6832C51.4451 26.6094 51.1966 26.5724 50.9295 26.5724C50.4551 26.5724 50.0346 26.6918 49.6681 26.9304C49.3017 27.1662 49.0147 27.5128 48.8074 27.9702C48.6 28.4247 48.4963 28.9801 48.4963 29.6364C48.4963 30.304 48.6 30.8665 48.8074 31.3239C49.0176 31.7784 49.3045 32.1222 49.6681 32.3551C50.0346 32.5852 50.4537 32.7003 50.9252 32.7003C51.1866 32.7003 51.4309 32.6662 51.6582 32.598C51.8883 32.527 52.0943 32.4233 52.2761 32.2869C52.4608 32.1506 52.6156 31.983 52.7406 31.7841C52.8684 31.5852 52.9565 31.358 53.0048 31.1023L54.5985 31.1108C54.5389 31.5256 54.4096 31.9148 54.2108 32.2784C54.0147 32.642 53.7576 32.9631 53.4395 33.2415C53.1213 33.517 52.7491 33.733 52.323 33.8892C51.8968 34.0426 51.4238 34.1193 50.9039 34.1193C50.1369 34.1193 49.4522 33.9418 48.85 33.5866C48.2477 33.2315 47.7733 32.7188 47.4267 32.0483C47.0801 31.3778 46.9068 30.5739 46.9068 29.6364C46.9068 28.696 47.0815 27.892 47.4309 27.2244C47.7804 26.554 48.2562 26.0412 48.8585 25.6861C49.4608 25.331 50.1426 25.1534 50.9039 25.1534C51.3897 25.1534 51.8414 25.2216 52.2591 25.358C52.6767 25.4943 53.0488 25.6946 53.3755 25.9588C53.7022 26.2202 53.9707 26.5412 54.1809 26.9219C54.394 27.2997 54.5332 27.7315 54.5985 28.2173ZM58.8333 34.1278C58.1941 34.1278 57.6401 33.9872 57.1713 33.706C56.7026 33.4247 56.339 33.0312 56.0804 32.5256C55.8248 32.0199 55.6969 31.429 55.6969 30.7528C55.6969 30.0767 55.8248 29.4844 56.0804 28.9759C56.339 28.4673 56.7026 28.0724 57.1713 27.7912C57.6401 27.5099 58.1941 27.3693 58.8333 27.3693C59.4725 27.3693 60.0265 27.5099 60.4952 27.7912C60.964 28.0724 61.3262 28.4673 61.5819 28.9759C61.8404 29.4844 61.9696 30.0767 61.9696 30.7528C61.9696 31.429 61.8404 32.0199 61.5819 32.5256C61.3262 33.0312 60.964 33.4247 60.4952 33.706C60.0265 33.9872 59.4725 34.1278 58.8333 34.1278ZM58.8418 32.892C59.1884 32.892 59.4782 32.7969 59.7111 32.6065C59.9441 32.4134 60.1174 32.1548 60.231 31.831C60.3475 31.5071 60.4057 31.1463 60.4057 30.7486C60.4057 30.348 60.3475 29.9858 60.231 29.6619C60.1174 29.3352 59.9441 29.0753 59.7111 28.8821C59.4782 28.6889 59.1884 28.5923 58.8418 28.5923C58.4867 28.5923 58.1912 28.6889 57.9554 28.8821C57.7225 29.0753 57.5478 29.3352 57.4313 29.6619C57.3176 29.9858 57.2608 30.348 57.2608 30.7486C57.2608 31.1463 57.3176 31.5071 57.4313 31.831C57.5478 32.1548 57.7225 32.4134 57.9554 32.6065C58.1912 32.7969 58.4867 32.892 58.8418 32.892ZM64.8216 30.1648V34H63.2789V27.4545H64.7534V28.5668H64.8301C64.9806 28.2003 65.2207 27.9091 65.5502 27.6932C65.8826 27.4773 66.2931 27.3693 66.7818 27.3693C67.2335 27.3693 67.627 27.4659 67.9622 27.6591C68.3002 27.8523 68.5616 28.1321 68.7463 28.4986C68.9338 28.8651 69.0261 29.3097 69.0233 29.8324V34H67.4806V30.071C67.4806 29.6335 67.367 29.2912 67.1397 29.044C66.9153 28.7969 66.6042 28.6733 66.2065 28.6733C65.9366 28.6733 65.6966 28.733 65.4863 28.8523C65.2789 28.9687 65.1156 29.1378 64.9963 29.3594C64.8798 29.581 64.8216 29.8494 64.8216 30.1648ZM73.8599 27.4545V28.6477H70.0971V27.4545H73.8599ZM71.0261 25.8864H72.5687V32.0312C72.5687 32.2386 72.6 32.3977 72.6625 32.5085C72.7278 32.6165 72.813 32.6903 72.9181 32.7301C73.0233 32.7699 73.1397 32.7898 73.2676 32.7898C73.3642 32.7898 73.4522 32.7827 73.5318 32.7685C73.6142 32.7543 73.6767 32.7415 73.7193 32.7301L73.9792 33.9361C73.8968 33.9645 73.7789 33.9957 73.6255 34.0298C73.475 34.0639 73.2903 34.0838 73.0716 34.0895C72.6852 34.1009 72.3372 34.0426 72.0275 33.9148C71.7179 33.7841 71.4721 33.5824 71.2903 33.3097C71.1113 33.0369 71.0233 32.696 71.0261 32.2869V25.8864ZM77.0336 34.1321C76.6188 34.1321 76.2452 34.0582 75.9128 33.9105C75.5833 33.7599 75.3219 33.5384 75.1287 33.2457C74.9384 32.9531 74.8432 32.5923 74.8432 32.1634C74.8432 31.794 74.9114 31.4886 75.0478 31.2472C75.1841 31.0057 75.3702 30.8125 75.606 30.6676C75.8418 30.5227 76.1074 30.4134 76.4029 30.3395C76.7012 30.2628 77.0094 30.2074 77.3276 30.1733C77.7111 30.1335 78.0222 30.098 78.2608 30.0668C78.4995 30.0327 78.6728 29.9815 78.7807 29.9134C78.8915 29.8423 78.9469 29.733 78.9469 29.5852V29.5597C78.9469 29.2386 78.8517 28.9901 78.6614 28.8139C78.4711 28.6378 78.1969 28.5497 77.839 28.5497C77.4611 28.5497 77.1614 28.6321 76.9398 28.7969C76.7211 28.9616 76.5733 29.1562 76.4966 29.3807L75.0563 29.1761C75.1699 28.7784 75.3574 28.446 75.6188 28.179C75.8801 27.9091 76.1998 27.7074 76.5776 27.5739C76.9554 27.4375 77.373 27.3693 77.8304 27.3693C78.1458 27.3693 78.4597 27.4062 78.7722 27.4801C79.0847 27.554 79.3702 27.6761 79.6287 27.8466C79.8873 28.0142 80.0946 28.2429 80.2509 28.5327C80.41 28.8224 80.4895 29.1847 80.4895 29.6193V34H79.0066V33.1009H78.9554C78.8617 33.2827 78.7296 33.4531 78.5591 33.6122C78.3915 33.7685 78.1799 33.8949 77.9242 33.9915C77.6713 34.0852 77.3745 34.1321 77.0336 34.1321ZM77.4341 32.9986C77.7438 32.9986 78.0123 32.9375 78.2395 32.8153C78.4668 32.6903 78.6415 32.5256 78.7637 32.321C78.8887 32.1165 78.9512 31.8935 78.9512 31.652V30.8807C78.9029 30.9205 78.8205 30.9574 78.704 30.9915C78.5904 31.0256 78.4625 31.0554 78.3205 31.081C78.1784 31.1065 78.0378 31.1293 77.8986 31.1491C77.7594 31.169 77.6387 31.1861 77.5364 31.2003C77.3063 31.2315 77.1003 31.2827 76.9185 31.3537C76.7367 31.4247 76.5932 31.5241 76.4881 31.652C76.383 31.777 76.3304 31.9389 76.3304 32.1378C76.3304 32.4219 76.4341 32.6364 76.6415 32.7812C76.8489 32.9261 77.1131 32.9986 77.4341 32.9986ZM84.8958 34.1278C84.2424 34.1278 83.6813 33.9844 83.2125 33.6974C82.7466 33.4105 82.3873 33.0142 82.1344 32.5085C81.8844 32 81.7594 31.4148 81.7594 30.7528C81.7594 30.0881 81.8873 29.5014 82.1429 28.9929C82.3986 28.4815 82.7594 28.0838 83.2253 27.7997C83.6941 27.5128 84.248 27.3693 84.8873 27.3693C85.4185 27.3693 85.8887 27.4673 86.2978 27.6634C86.7097 27.8565 87.0378 28.1307 87.2821 28.4858C87.5265 28.8381 87.6657 29.25 87.6998 29.7216H86.2253C86.1657 29.4062 86.0236 29.1435 85.7992 28.9332C85.5776 28.7202 85.2807 28.6136 84.9086 28.6136C84.5932 28.6136 84.3162 28.6989 84.0776 28.8693C83.839 29.0369 83.6529 29.2784 83.5194 29.5938C83.3887 29.9091 83.3233 30.2869 83.3233 30.7273C83.3233 31.1733 83.3887 31.5568 83.5194 31.8778C83.65 32.196 83.8333 32.4418 84.0691 32.6151C84.3077 32.7855 84.5875 32.8707 84.9086 32.8707C85.1358 32.8707 85.339 32.8281 85.5179 32.7429C85.6998 32.6548 85.8517 32.5284 85.9739 32.3636C86.0961 32.1989 86.1799 31.9986 86.2253 31.7628H87.6998C87.6628 32.2259 87.5265 32.6364 87.2907 32.9943C87.0549 33.3494 86.7338 33.6278 86.3276 33.8295C85.9213 34.0284 85.4441 34.1278 84.8958 34.1278ZM92.2349 27.4545V28.6477H88.4721V27.4545H92.2349ZM89.4011 25.8864H90.9437V32.0312C90.9437 32.2386 90.975 32.3977 91.0375 32.5085C91.1028 32.6165 91.188 32.6903 91.2931 32.7301C91.3983 32.7699 91.5147 32.7898 91.6426 32.7898C91.7392 32.7898 91.8272 32.7827 91.9068 32.7685C91.9892 32.7543 92.0517 32.7415 92.0943 32.7301L92.3542 33.9361C92.2718 33.9645 92.1539 33.9957 92.0005 34.0298C91.85 34.0639 91.6653 34.0838 91.4466 34.0895C91.0602 34.1009 90.7122 34.0426 90.4025 33.9148C90.0929 33.7841 89.8471 33.5824 89.6653 33.3097C89.4863 33.0369 89.3983 32.696 89.4011 32.2869V25.8864Z" fill="#A18066"/>
</svg>
