<svg width="140" height="49" viewBox="0 0 140 49" fill="none" xmlns="http://www.w3.org/2000/svg">
<path d="M0 44C0 35.7157 6.71573 29 15 29H125C133.284 29 140 35.7157 140 44V49H0V44Z" fill="#F0DBDB"/>
<path d="M23 30C23 21.7157 29.7157 15 38 15H104C110.627 15 116 20.3726 116 27V31C116 35.4183 112.418 39 108 39H31C26.5817 39 23 35.4183 23 31V30Z" fill="#F0DBDB"/>
<path d="M43 20C43 8.95431 51.9543 0 63 0H69C80.0457 0 89 8.95431 89 20V29H43V20Z" fill="#F0DBDB"/>
<path d="M46.4956 34V25.2727H49.7683C50.4387 25.2727 51.0012 25.3977 51.4558 25.6477C51.9132 25.8977 52.2583 26.2415 52.4913 26.679C52.7271 27.1136 52.845 27.608 52.845 28.1619C52.845 28.7216 52.7271 29.2187 52.4913 29.6534C52.2555 30.0881 51.9075 30.4304 51.4473 30.6804C50.987 30.9276 50.4203 31.0511 49.747 31.0511H47.5779V29.7514H49.5339C49.926 29.7514 50.247 29.6832 50.497 29.5469C50.747 29.4105 50.9316 29.223 51.051 28.9844C51.1731 28.7457 51.2342 28.4716 51.2342 28.1619C51.2342 27.8523 51.1731 27.5795 51.051 27.3438C50.9316 27.108 50.7456 26.9247 50.4927 26.794C50.2427 26.6605 49.9203 26.5938 49.5254 26.5938H48.0765V34H46.4956ZM54.15 34V27.4545H55.6458V28.5455H55.714C55.8333 28.1676 56.0378 27.8764 56.3276 27.6719C56.6202 27.4645 56.954 27.3608 57.329 27.3608C57.4142 27.3608 57.5094 27.3651 57.6145 27.3736C57.7225 27.3793 57.812 27.3892 57.883 27.4034V28.8224C57.8176 28.7997 57.714 28.7798 57.5719 28.7628C57.4327 28.7429 57.2978 28.733 57.1671 28.733C56.8858 28.733 56.633 28.794 56.4086 28.9162C56.187 29.0355 56.0123 29.2017 55.8844 29.4148C55.7566 29.6278 55.6926 29.8736 55.6926 30.152V34H54.15ZM61.4934 34.1278C60.8542 34.1278 60.3002 33.9872 59.8315 33.706C59.3627 33.4247 58.9991 33.0312 58.7406 32.5256C58.4849 32.0199 58.3571 31.429 58.3571 30.7528C58.3571 30.0767 58.4849 29.4844 58.7406 28.9759C58.9991 28.4673 59.3627 28.0724 59.8315 27.7912C60.3002 27.5099 60.8542 27.3693 61.4934 27.3693C62.1326 27.3693 62.6866 27.5099 63.1554 27.7912C63.6241 28.0724 63.9863 28.4673 64.242 28.9759C64.5005 29.4844 64.6298 30.0767 64.6298 30.7528C64.6298 31.429 64.5005 32.0199 64.242 32.5256C63.9863 33.0312 63.6241 33.4247 63.1554 33.706C62.6866 33.9872 62.1326 34.1278 61.4934 34.1278ZM61.502 32.892C61.8485 32.892 62.1383 32.7969 62.3713 32.6065C62.6042 32.4134 62.7775 32.1548 62.8912 31.831C63.0076 31.5071 63.0659 31.1463 63.0659 30.7486C63.0659 30.348 63.0076 29.9858 62.8912 29.6619C62.7775 29.3352 62.6042 29.0753 62.3713 28.8821C62.1383 28.6889 61.8485 28.5923 61.502 28.5923C61.1468 28.5923 60.8514 28.6889 60.6156 28.8821C60.3826 29.0753 60.2079 29.3352 60.0914 29.6619C59.9778 29.9858 59.921 30.348 59.921 30.7486C59.921 31.1463 59.9778 31.5071 60.0914 31.831C60.2079 32.1548 60.3826 32.4134 60.6156 32.6065C60.8514 32.7969 61.1468 32.892 61.502 32.892ZM65.9391 27.4545H67.4817V34.375C67.4817 34.8466 67.3922 35.2358 67.2132 35.5426C67.0343 35.8494 66.7757 36.0781 66.4377 36.2287C66.0996 36.3793 65.6891 36.4545 65.2061 36.4545C65.1493 36.4545 65.0968 36.4531 65.0485 36.4503C65.0002 36.4503 64.9476 36.4489 64.8908 36.446V35.1889C64.9334 35.1918 64.9718 35.1932 65.0059 35.1932C65.04 35.196 65.0755 35.1974 65.1124 35.1974C65.4078 35.1974 65.6195 35.125 65.7473 34.9801C65.8752 34.8381 65.9391 34.6293 65.9391 34.3537V27.4545ZM66.7061 26.5256C66.459 26.5256 66.2473 26.4446 66.0712 26.2827C65.8979 26.1179 65.8113 25.9205 65.8113 25.6903C65.8113 25.4574 65.8979 25.2599 66.0712 25.098C66.2473 24.9332 66.459 24.8509 66.7061 24.8509C66.9505 24.8509 67.1593 24.9332 67.3326 25.098C67.5087 25.2599 67.5968 25.4574 67.5968 25.6903C67.5968 25.9205 67.5087 26.1179 67.3326 26.2827C67.1593 26.4446 66.9505 26.5256 66.7061 26.5256ZM71.9657 34.1278C71.3095 34.1278 70.7427 33.9915 70.2654 33.7188C69.791 33.4432 69.426 33.054 69.1703 32.5511C68.9146 32.0455 68.7868 31.4503 68.7868 30.7656C68.7868 30.0923 68.9146 29.5014 69.1703 28.9929C69.4288 28.4815 69.7896 28.0838 70.2527 27.7997C70.7157 27.5128 71.2598 27.3693 71.8848 27.3693C72.2882 27.3693 72.6689 27.4347 73.0268 27.5653C73.3876 27.6932 73.7058 27.892 73.9814 28.1619C74.2598 28.4318 74.4785 28.7756 74.6376 29.1932C74.7967 29.608 74.8762 30.1023 74.8762 30.6761V31.1491H69.5112V30.1094H73.3975C73.3947 29.8139 73.3308 29.5511 73.2058 29.321C73.0808 29.0881 72.9061 28.9048 72.6816 28.7713C72.46 28.6378 72.2015 28.571 71.9061 28.571C71.5907 28.571 71.3137 28.6477 71.0751 28.8011C70.8365 28.9517 70.6504 29.1506 70.5169 29.3977C70.3862 29.642 70.3194 29.9105 70.3166 30.2031V31.1108C70.3166 31.4915 70.3862 31.8182 70.5254 32.0909C70.6646 32.3608 70.8592 32.5682 71.1092 32.7131C71.3592 32.8551 71.6518 32.9261 71.987 32.9261C72.2115 32.9261 72.4146 32.8949 72.5964 32.8324C72.7782 32.767 72.9359 32.6719 73.0694 32.5469C73.2029 32.4219 73.3038 32.267 73.372 32.0824L74.8123 32.2443C74.7214 32.625 74.5481 32.9574 74.2924 33.2415C74.0396 33.5227 73.7157 33.7415 73.3208 33.8977C72.926 34.0511 72.4743 34.1278 71.9657 34.1278ZM79.0364 34.1278C78.383 34.1278 77.8219 33.9844 77.3532 33.6974C76.8873 33.4105 76.5279 33.0142 76.275 32.5085C76.025 32 75.9 31.4148 75.9 30.7528C75.9 30.0881 76.0279 29.5014 76.2836 28.9929C76.5392 28.4815 76.9 28.0838 77.3659 27.7997C77.8347 27.5128 78.3887 27.3693 79.0279 27.3693C79.5591 27.3693 80.0293 27.4673 80.4384 27.6634C80.8503 27.8565 81.1784 28.1307 81.4228 28.4858C81.6671 28.8381 81.8063 29.25 81.8404 29.7216H80.3659C80.3063 29.4062 80.1642 29.1435 79.9398 28.9332C79.7182 28.7202 79.4213 28.6136 79.0492 28.6136C78.7338 28.6136 78.4569 28.6989 78.2182 28.8693C77.9796 29.0369 77.7935 29.2784 77.66 29.5938C77.5293 29.9091 77.464 30.2869 77.464 30.7273C77.464 31.1733 77.5293 31.5568 77.66 31.8778C77.7907 32.196 77.9739 32.4418 78.2097 32.6151C78.4483 32.7855 78.7282 32.8707 79.0492 32.8707C79.2765 32.8707 79.4796 32.8281 79.6586 32.7429C79.8404 32.6548 79.9924 32.5284 80.1145 32.3636C80.2367 32.1989 80.3205 31.9986 80.3659 31.7628H81.8404C81.8034 32.2259 81.6671 32.6364 81.4313 32.9943C81.1955 33.3494 80.8745 33.6278 80.4682 33.8295C80.062 34.0284 79.5847 34.1278 79.0364 34.1278ZM86.3755 27.4545V28.6477H82.6127V27.4545H86.3755ZM83.5417 25.8864H85.0843V32.0312C85.0843 32.2386 85.1156 32.3977 85.1781 32.5085C85.2434 32.6165 85.3287 32.6903 85.4338 32.7301C85.5389 32.7699 85.6554 32.7898 85.7832 32.7898C85.8798 32.7898 85.9679 32.7827 86.0474 32.7685C86.1298 32.7543 86.1923 32.7415 86.2349 32.7301L86.4949 33.9361C86.4125 33.9645 86.2946 33.9957 86.1412 34.0298C85.9906 34.0639 85.8059 34.0838 85.5872 34.0895C85.2008 34.1009 84.8528 34.0426 84.5431 33.9148C84.2335 33.7841 83.9877 33.5824 83.8059 33.3097C83.627 33.0369 83.5389 32.696 83.5417 32.2869V25.8864ZM92.7452 29.1847L91.339 29.3381C91.2992 29.196 91.2296 29.0625 91.1301 28.9375C91.0336 28.8125 90.9029 28.7116 90.7381 28.6349C90.5733 28.5582 90.3716 28.5199 90.133 28.5199C89.812 28.5199 89.5421 28.5895 89.3233 28.7287C89.1074 28.8679 89.0009 29.0483 89.0037 29.2699C89.0009 29.4602 89.0705 29.6151 89.2125 29.7344C89.3574 29.8537 89.5961 29.9517 89.9284 30.0284L91.0449 30.267C91.6642 30.4006 92.1245 30.6122 92.4256 30.902C92.7296 31.1918 92.883 31.571 92.8858 32.0398C92.883 32.4517 92.7623 32.8153 92.5236 33.1307C92.2878 33.4432 91.9597 33.6875 91.5392 33.8636C91.1188 34.0398 90.6358 34.1278 90.0904 34.1278C89.2892 34.1278 88.6444 33.9602 88.1557 33.625C87.6671 33.2869 87.3759 32.8168 87.2821 32.2145L88.7864 32.0696C88.8546 32.3651 88.9995 32.5881 89.2211 32.7386C89.4426 32.8892 89.731 32.9645 90.0861 32.9645C90.4526 32.9645 90.7466 32.8892 90.9682 32.7386C91.1926 32.5881 91.3049 32.402 91.3049 32.1804C91.3049 31.9929 91.2324 31.8381 91.0875 31.7159C90.9455 31.5937 90.7239 31.5 90.4228 31.4347L89.3063 31.2003C88.6784 31.0696 88.214 30.8494 87.9128 30.5398C87.6117 30.2273 87.4625 29.8324 87.4654 29.3551C87.4625 28.9517 87.5719 28.6023 87.7935 28.3068C88.0179 28.0085 88.329 27.7784 88.7267 27.6165C89.1273 27.4517 89.589 27.3693 90.1117 27.3693C90.8787 27.3693 91.4824 27.5327 91.9228 27.8594C92.3659 28.1861 92.6401 28.6278 92.7452 29.1847Z" fill="#D09C94"/>
</svg>
